HIERARCHY
ROOT Hips
{
	OFFSET -3.958830 18.904000 13.208200
	CHANNELS 6 Xposition Yposition Zposition Zrotation Yrotation Xrotation 
	JOINT LHipJoint
	{
		OFFSET 0.000000 0.000000 0.000000
		CHANNELS 3 Zrotation Yrotation Xrotation
		JOINT LeftUpLeg
		{
			OFFSET 1.800000 -1.400000 0.085000
			CHANNELS 3 Zrotation Yrotation Xrotation
			JOINT LeftLeg
			{
				OFFSET 2.215000 -6.000000 0.000000
				CHANNELS 3 Zrotation Yrotation Xrotation
				JOINT LeftFoot
				{
					OFFSET 2.500000 -6.900000 0.000000
					CHANNELS 3 Zrotation Yrotation Xrotation
					JOINT LeftToeBase
					{
						OFFSET 0.200000 -0.500000 1.950000
						CHANNELS 3 Zrotation Yrotation Xrotation
						End Site
						{
							OFFSET 0.000000 0.000000 0.000000
						}
					}
				}
			}
		}
	}
	JOINT RHipJoint
	{
		OFFSET 0.000000 0.000000 0.000000
		CHANNELS 3 Zrotation Yrotation Xrotation
		JOINT RightUpLeg
		{
			OFFSET -1.800000 -1.400000 0.085000
			CHANNELS 3 Zrotation Yrotation Xrotation
			JOINT RightLeg
			{
				OFFSET -2.215000 -6.000000 0.000000
				CHANNELS 3 Zrotation Yrotation Xrotation
				JOINT RightFoot
				{
					OFFSET -2.500000 -6.900000 0.000000
					CHANNELS 3 Zrotation Yrotation Xrotation
					JOINT RightToeBase
					{
						OFFSET -0.200000 -0.500000 1.950000
						CHANNELS 3 Zrotation Yrotation Xrotation
						End Site
						{
							OFFSET 0.000000 0.000000 0.000000
						}
					}
				}
			}
		}
	}
	JOINT LowerBack
	{
		OFFSET 0.000000 0.000000 0.000000
		CHANNELS 3 Zrotation Yrotation Xrotation
		JOINT Spine
		{
			OFFSET -0.087000 1.940000 -0.288900
			CHANNELS 3 Zrotation Yrotation Xrotation
			JOINT Spine1
			{
				OFFSET 0.000000 1.950000 0.060000
				CHANNELS 3 Zrotation Yrotation Xrotation
				JOINT Neck
				{
					OFFSET 0.000000 0.000000 0.000000
					CHANNELS 3 Zrotation Yrotation Xrotation
					JOINT Neck1
					{
						OFFSET 0.000000 1.600000 0.340000
						CHANNELS 3 Zrotation Yrotation Xrotation
						JOINT Head
						{
							OFFSET 0.000000 1.667000 -0.240000
							CHANNELS 3 Zrotation Yrotation Xrotation
							End Site
							{
								OFFSET 0.000000 0.000000 0.000000
							}
						}
					}
				}
				JOINT LeftShoulder
				{
					OFFSET 0.000000 0.000000 0.000000
					CHANNELS 3 Zrotation Yrotation Xrotation
					JOINT LeftArm
					{
						OFFSET 2.700000 1.550000 -0.730000
						CHANNELS 3 Zrotation Yrotation Xrotation
						JOINT LeftForeArm
						{
							OFFSET 5.450000 0.000000 0.000000
							CHANNELS 3 Zrotation Yrotation Xrotation
							JOINT LeftHand
							{
								OFFSET 3.450000 0.000000 0.000000
								CHANNELS 3 Zrotation Yrotation Xrotation
								JOINT LeftHandIndex1
								{
									OFFSET 0.750000 0.000000 0.000000
									CHANNELS 3 Zrotation Yrotation Xrotation
									End Site
									{
										OFFSET 0.000000 0.000000 0.000000
									}
								}
							}
						}
					}
				}
				JOINT RightShoulder
				{
					OFFSET 0.000000 0.000000 0.000000
					CHANNELS 3 Zrotation Yrotation Xrotation
					JOINT RightArm
					{
						OFFSET -2.700000 1.550000 -0.730000
						CHANNELS 3 Zrotation Yrotation Xrotation
						JOINT RightForeArm
						{
							OFFSET -5.450000 0.000000 0.000000
							CHANNELS 3 Zrotation Yrotation Xrotation
							JOINT RightHand
							{
								OFFSET -3.450000 0.000000 0.000000
								CHANNELS 3 Zrotation Yrotation Xrotation
								JOINT RightHandIndex1
								{
									OFFSET -0.750000 0.000000 0.000000
									CHANNELS 3 Zrotation Yrotation Xrotation
									End Site
									{
										OFFSET 0.000000 0.000000 0.000000
									}
								}
							}
						}
					}
				}
			}
		}
	}
}
MOTION
Frames: 6
Frame Time: 0.016667
-0.001970 16.548260 -1.615200 -0.713945 22.176706 -10.617944 -14.926159 12.513435 2.765619 11.479933 -1.187698 -25.712928 -0.877001 10.084188 39.815735 -0.710815 7.949074 1.841444 0.538440 -0.048610 0.335400 18.467979 -11.993862 2.284647 -21.976180 3.187889 -14.497605 8.743813 -13.716673 42.328974 -0.778986 -8.097808 1.635747 0.323190 0.637770 0.302400 -4.868227 1.208954 -7.644971 13.624498 7.848073 9.303102 -1.946532 5.524424 13.904779 -0.232355 0.043322 -8.956975 -2.201335 -5.285032 39.413761 -2.686140 -6.528390 -6.893490 6.119017 -25.343887 3.127203 13.337292 -48.861984 7.555121 132.755681 -47.443897 -87.177405 -4.240362 2.311002 0.591370 0.437570 -0.377730 0.292540 -5.625145 27.261773 2.432358 35.219010 54.900803 25.835876 -119.977061 89.406669 -127.152753 1.154349 -1.992643 -0.509600 0.492190 0.166770 -0.366340 
0.017080 16.546960 -1.607910 -0.689837 22.363255 -10.705187 -14.945463 12.544895 2.758201 11.191918 -1.233189 -25.717773 -0.459990 9.940149 40.139185 -0.700026 7.962631 1.845034 0.525040 -0.060120 0.317330 18.446064 -11.997958 2.266288 -22.109873 3.123749 -14.149501 8.711486 -13.692504 42.208633 -0.767050 -8.095670 1.645063 0.318500 0.655990 0.296220 -4.812887 1.154360 -7.619067 12.989381 8.041156 9.291016 -1.557958 5.679421 14.136251 -0.398157 0.166789 -8.954055 -2.140427 -5.440969 39.964047 -2.372500 -6.860270 -6.422330 6.127391 -24.956706 2.844817 12.161100 -48.981844 8.387503 133.407756 -47.826661 -88.865557 -4.252898 2.324273 0.579610 0.446070 -0.391600 0.294120 -5.275144 26.929757 2.810872 35.890269 55.061176 26.363552 -118.426513 89.808840 -126.244856 1.193620 -1.914571 -0.513590 0.501420 0.175380 -0.358140 
0.037170 16.544940 -1.602260 -0.730601 22.469863 -10.715835 -14.959160 12.553504 2.761857 11.083100 -1.305569 -25.755044 -0.287102 9.888942 40.374780 -0.689103 7.986734 1.845392 0.516420 -0.060250 0.297910 18.433743 -11.985536 2.256253 -22.354311 3.000426 -13.914239 8.900171 -13.789680 41.987600 -0.758335 -8.103457 1.652288 0.321350 0.676700 0.284300 -4.773502 1.100993 -7.607871 12.491282 8.143058 9.272229 -1.277796 5.735480 14.329155 -0.583232 0.189331 -8.909509 -2.209295 -5.432712 40.307846 -1.871660 -7.140690 -6.174570 6.020886 -24.452039 2.555152 11.240945 -49.020380 8.995021 133.812109 -48.231716 -90.169740 -4.260827 2.329516 0.567230 0.453470 -0.404990 0.299980 -4.793376 26.508683 3.124201 36.763496 55.523761 27.180750 62.705232 89.999100 54.518659 1.214924 -1.858172 -0.519470 0.518300 0.179690 -0.346850 
0.054720 16.541920 -1.598300 -0.759934 22.503591 -10.678026 -14.973672 12.529910 2.775792 11.113357 -1.390965 -25.839322 -0.433205 10.002503 40.595876 -0.692191 8.079131 1.824489 0.494720 -0.087300 0.271720 18.427352 -11.953176 2.252726 -22.717761 2.898746 -13.825785 9.247816 -14.005758 41.822414 -0.744492 -8.153241 1.646813 0.319740 0.715930 0.277940 -4.732125 1.065509 -7.597461 12.017555 8.261689 9.247613 -1.086279 5.809961 14.535366 -0.734026 0.259119 -8.819718 -2.121575 -5.473611 40.292176 -1.608410 -7.391260 -5.603630 5.910689 -24.048326 2.298169 10.661493 -49.012296 9.332266 133.583045 -48.606109 -90.526696 -4.288448 2.317254 0.557440 0.477710 -0.435730 0.302250 -4.381938 26.138312 3.337869 37.331445 55.848658 28.054440 64.834787 89.968843 56.035892 1.267422 -1.710446 -0.541640 0.539500 0.200760 -0.343950 
0.074100 16.537370 -1.593660 -0.875442 22.537980 -10.602579 -14.986165 12.487065 2.792282 11.265944 -1.453224 -26.058986 -0.585820 10.146391 40.861419 -0.680651 8.169216 1.797803 0.482590 -0.100220 0.255360 18.426529 -11.907176 2.261369 -23.099508 2.816095 -13.736256 9.865999 -14.321572 41.540257 -0.743773 -8.209907 1.629114 0.319010 0.735730 0.276710 -4.699629 1.047700 -7.593227 11.679086 8.405538 9.160244 -0.986693 5.915913 14.709294 -0.831450 0.328392 -8.773095 -2.067005 -5.602876 40.391677 -1.521840 -7.623580 -5.156180 5.946501 -23.676139 2.093159 10.141618 -49.056825 9.601937 133.205417 -48.878514 -90.525413 -4.300784 2.313463 0.546860 0.490240 -0.450920 0.304980 -4.240192 25.773164 3.549895 37.800382 56.108017 29.005814 -112.528877 89.715248 -121.982530 1.370981 -1.474143 -0.549460 0.546510 0.210170 -0.338510 
0.093530 16.531630 -1.586650 -0.949886 22.409525 -10.438482 -14.998595 12.448360 2.807129 11.423261 -1.455635 -26.245610 -0.838747 10.365882 41.093221 -0.670284 8.267149 1.766704 0.469650 -0.110950 0.237400 18.425902 -11.859120 2.268838 -23.437526 2.796718 -13.733457 10.380609 -14.548633 41.262777 -0.736627 -8.246394 1.623434 0.319340 0.755180 0.271490 -4.659527 1.026254 -7.579231 11.304157 8.650537 8.990110 -0.903176 6.097271 14.934676 -0.938268 0.392586 -8.751632 -2.052967 -5.697410 40.547994 -1.439600 -7.818690 -4.815680 5.961638 -23.127042 1.866235 9.546824 -49.303848 9.898476 132.396844 -48.965997 -89.614793 -4.313719 2.288171 0.538080 0.503940 -0.466840 0.305720 -4.073199 25.233471 3.873035 38.616863 56.421479 30.090831 -110.143578 89.251375 -120.147146 1.481830 -1.179504 -0.559100 0.557230 0.220810 -0.334670 
